HIERARCHY
ROOT hip
{
	OFFSET 0.000000 0.000000 0.000000 
	CHANNELS 6 Xposition Yposition Zposition Xrotation Zrotation Yrotation
	JOINT abdomen
	{
		OFFSET 0.000000 3.402643 0.000000 
		CHANNELS 3 Xrotation Zrotation Yrotation
		JOINT chest
		{
			OFFSET 0.000000 8.438565 -0.680529 
			CHANNELS 3 Xrotation Zrotation Yrotation
			JOINT neck
			{
				OFFSET 0.000000 10.207942 -0.272212 
				CHANNELS 3 Xrotation Zrotation Yrotation
				JOINT head
				{
					OFFSET 0.000000 3.130431 0.000000 
					CHANNELS 3 Xrotation Zrotation Yrotation
					End Site
					{
						OFFSET 0.000000 3.130435 0.000000 
					}
				}
			}
			JOINT lCollar
			{
				OFFSET 3.470700 6.669187 -0.816635 
				CHANNELS 3 Yrotation Zrotation Xrotation
				JOINT lShldr
				{
					OFFSET 3.198488 0.000000 0.000000 
					CHANNELS 3 Zrotation Yrotation Xrotation
					JOINT lForeArm
					{
						OFFSET 10.139888 0.000000 0.000000 
						CHANNELS 3 Yrotation Zrotation Xrotation
						JOINT lHand
						{
							OFFSET 8.370511 0.000000 0.000000 
							CHANNELS 3 Zrotation Yrotation Xrotation
							End Site
							{
								OFFSET 4.083176 0.000000 0.000000 
							}
						}
					}
				}
			}
			JOINT rCollar
			{
				OFFSET -3.470700 6.669187 -0.816635 
				CHANNELS 3 Yrotation Zrotation Xrotation
				JOINT rShldr
				{
					OFFSET -3.198488 0.000000 0.000000 
					CHANNELS 3 Zrotation Yrotation Xrotation
					JOINT rForeArm
					{
						OFFSET -10.139888 0.000000 0.000000 
						CHANNELS 3 Yrotation Zrotation Xrotation
						JOINT rHand
						{
							OFFSET -8.370511 0.000000 0.000000 
							CHANNELS 3 Zrotation Yrotation Xrotation
							End Site
							{
								OFFSET -4.083176 0.000000 0.000000 
							}
						}
					}
				}
			}
		}
	}
	JOINT lThigh
	{
		OFFSET 5.308129 -1.633274 1.361059 
		CHANNELS 3 Xrotation Zrotation Yrotation
		JOINT lShin
		{
			OFFSET -2.041588 -20.007561 0.000000 
			CHANNELS 3 Xrotation Zrotation Yrotation
			JOINT lFoot
			{
				OFFSET 0.000000 -19.190928 -1.224953 
				CHANNELS 3 Xrotation Yrotation Zrotation
				End Site
				{
					OFFSET 0.000000 -2.449906 4.627600 
				}
			}
		}
	}
	JOINT rThigh
	{
		OFFSET -5.308129 -1.633274 1.361059 
		CHANNELS 3 Xrotation Zrotation Yrotation
		JOINT rShin
		{
			OFFSET 2.041588 -20.007561 0.000000 
			CHANNELS 3 Xrotation Zrotation Yrotation
			JOINT rFoot
			{
				OFFSET 0.000000 -19.190928 -1.224953 
				CHANNELS 3 Xrotation Yrotation Zrotation
				End Site
				{
					OFFSET 0.000000 -2.449906 4.627600 
				}
			}
		}
	}
}
MOTION
Frames: 8
Frame Time: 0.033333
18.785334 46.647354 60.955635 -13.956836 0.900350 1.846588 29.002401 -2.256414 -3.692691 -20.839844 0.000000 0.000000 10.330301 15.215172 1.439703 -2.520846 -1.255050 0.218350 -4.754609 -0.109183 -0.002653 -5.637040 22.582438 -15.099018 -41.145790 -8.261445 16.872734 4.807128 -2.608194 10.371942 4.754609 0.109183 -0.002672 26.208067 -24.320021 -25.623964 40.660728 -2.966643 9.916724 6.746981 -3.851340 19.037308 15.784321 17.779587 14.070389 3.546962 -5.043524 1.301608 -0.888909 -1.717863 -16.229149 14.369965 -17.808886 -15.778184 16.556150 9.787323 -5.453251 -11.010242 -2.111071 3.793334 
18.790411 46.646851 60.963249 -13.927535 0.900464 1.778689 28.933914 -2.205761 -3.582705 -20.839844 0.000000 0.000000 10.291760 15.212964 1.518124 -2.520846 -1.255050 0.218350 -4.754609 -0.109183 -0.002653 -5.601564 22.636917 -15.006575 -41.153557 -8.345634 16.907978 4.880280 -2.554512 10.281705 4.754609 0.109183 -0.002672 26.121141 -24.377308 -25.689045 40.778847 -3.035805 9.855218 6.815403 -3.989783 19.045128 15.709507 17.761517 14.098369 3.695475 -5.035247 1.338462 -0.948175 -1.722998 -16.235146 14.299726 -17.797447 -15.779419 16.614128 9.689037 -5.448864 -11.070236 -2.064310 3.892047 
18.797365 46.645836 60.974419 -13.898311 0.919538 1.706100 28.857153 -2.252594 -3.570141 -20.839844 0.000000 0.000000 10.355516 15.235740 1.617846 -2.520846 -1.255050 0.218350 -4.754609 -0.109183 -0.002653 -5.476112 22.729925 -14.910322 -41.186577 -8.425408 16.911846 4.895275 -2.559703 10.164311 4.754609 0.109183 -0.002672 26.141344 -24.493145 -25.710508 41.100380 -3.076201 9.797344 6.952979 -4.173065 18.954624 15.720536 17.713547 14.118673 3.706744 -5.027759 1.396297 -0.972972 -1.726850 -16.154661 14.264206 -17.859062 -15.777719 16.649248 9.703379 -5.375672 -11.119966 -2.037311 3.916058 
18.804827 46.644310 60.988125 -13.888776 0.976457 1.711727 28.829105 -2.323498 -3.629610 -20.839844 0.000000 0.000000 10.423939 15.195176 1.607931 -2.520846 -1.255050 0.218350 -4.754609 -0.109183 -0.002653 -5.516116 22.773048 -14.968662 -41.191330 -8.356994 16.903723 4.888390 -2.622581 10.265086 4.754609 0.109183 -0.002672 26.150192 -24.557032 -25.712219 41.267216 -3.082931 9.808722 6.946963 -4.246864 18.953249 15.757012 17.633966 14.085490 3.633286 -5.020433 1.431231 -0.956717 -1.785809 -16.123800 14.304585 -17.997499 -15.879749 16.644211 9.787507 -5.325480 -11.101881 -2.004286 3.899960 
18.810820 46.644310 60.999802 -13.908600 1.042730 1.734030 28.820690 -2.383677 -3.662022 -20.839844 0.000000 0.000000 10.359865 15.151898 1.534093 -2.520846 -1.255050 0.218350 -4.754609 -0.109183 -0.002653 -5.682613 22.760855 -15.126217 -41.196953 -8.199473 16.863516 4.780385 -2.670993 10.472728 4.754609 0.109183 -0.002672 26.093714 -24.585932 -25.711546 41.217785 -3.091842 9.979609 6.819282 -4.277818 19.227032 15.806338 17.556627 14.043177 3.569849 -5.017502 1.475929 -0.921504 -1.788239 -16.111980 14.350677 -18.073193 -15.930581 16.647524 9.819474 -5.302109 -11.082282 -2.013142 3.873968 
18.817724 46.645332 61.011990 -13.947711 1.052032 1.701670 28.821619 -2.387369 -3.597854 -20.839844 0.000000 0.000000 10.276619 15.096779 1.524852 -2.520846 -1.255050 0.218350 -4.754609 -0.109183 -0.002653 -5.811591 22.714977 -15.229199 -41.160042 -8.099059 16.838331 4.634833 -2.732417 10.602764 4.754609 0.109183 -0.002672 26.056562 -24.720245 -25.745691 41.242027 -3.129049 10.260592 6.820248 -4.485041 19.675381 15.862838 17.496037 14.095784 3.589365 -4.968747 1.543268 -0.972765 -1.844525 -16.074312 14.402309 -18.084284 -15.967305 16.630997 9.768930 -5.290224 -11.061987 -2.027818 3.888513 
18.827471 46.644310 61.024677 -13.977013 1.051898 1.701132 28.880253 -2.380536 -3.587190 -20.839844 0.000000 0.000000 10.281383 15.160995 1.604909 -2.520846 -1.255050 0.218350 -4.754609 -0.109183 -0.002653 -5.837761 22.723423 -15.239964 -41.117542 -8.073871 16.916914 4.579189 -2.784629 10.722722 4.754609 0.109183 -0.002672 26.135298 -24.887726 -25.781801 41.516445 -3.195730 10.365478 6.956321 -4.826210 19.848667 15.877118 17.519112 14.221087 3.684903 -4.985133 1.574052 -1.078692 -1.991990 -16.127609 14.467435 -18.063026 -15.970277 16.586491 9.710143 -5.333263 -11.040948 -2.043454 3.967579 
18.839096 46.642273 61.037369 -13.996679 1.080236 1.762049 28.967642 -2.391287 -3.665600 -20.839844 0.000000 0.000000 10.307178 15.254486 1.668014 -2.520846 -1.255050 0.218350 -4.754609 -0.109183 -0.002653 -5.797094 22.792234 -15.212146 -41.129353 -8.075076 17.043987 4.589718 -2.776171 10.908331 4.754609 0.109183 -0.002672 26.225794 -24.959146 -25.780073 41.736835 -3.204811 10.316170 7.029392 -4.862185 19.750778 15.882054 17.525930 14.294283 3.758842 -5.040141 1.557892 -1.123682 -2.129008 -16.162582 14.569688 -18.085556 -16.044014 16.558287 9.720599 -5.364828 -11.071342 -1.989022 4.037703 
